<svg xmlns="http://www.w3.org/2000/svg" viewBox="0 0 204.96 170.75"><defs><style>.cls-1{fill:#b1976b;}</style></defs><g id="Warstwa_2" data-name="Warstwa 2"><g id="Warstwa_1-2" data-name="Warstwa 1"><polygon class="cls-1" points="190.97 45 109 45 151.94 84.03 190.97 45"/><path d="M142.82,170.75a3,3,0,0,1-3-3v-72a7.8,7.8,0,0,1,2.3-5.55l56.3-56.3a1.84,1.84,0,0,0-1.3-3.14H75.19a1.84,1.84,0,0,0-1.3,3.14l56.3,56.3a7.79,7.79,0,0,1,2.29,5.55v72a3,3,0,0,1-6,0v-72a1.84,1.84,0,0,0-.53-1.3L69.64,38.15a7.84,7.84,0,0,1,5.55-13.38H197.12a7.84,7.84,0,0,1,5.54,13.38l-56.3,56.31a1.85,1.85,0,0,0-.54,1.3v72A3,3,0,0,1,142.82,170.75Z"/><path d="M129.48,76.5a3,3,0,0,1-2.12-.88L57.74,6H19a3,3,0,1,1,0-6H60.23L131.6,71.38a3,3,0,0,1-2.12,5.12Z"/><path d="M117.16,97.59H36.52a6.41,6.41,0,0,1-6-8.67l12.29-32.6a6.45,6.45,0,0,1,6-4.15H72.22ZM48.42,58.44,36.14,91a.4.4,0,0,0,0,.38.38.38,0,0,0,.34.17h66.26L69.72,58.17H48.81A.42.42,0,0,0,48.42,58.44Z"/><path d="M30.66,169.87H12.16A4.93,4.93,0,0,1,7.23,165V107.3c-2.95-3.17-10-11.74-6.06-17.65,3.33-5,10.05-3.65,14-2.27L31.4,47.54A5.72,5.72,0,0,1,36.73,44H63.17l50.31,48.21A8.15,8.15,0,0,1,116,98v46a6.2,6.2,0,0,1-6.19,6.19H37.87v12.5A7.21,7.21,0,0,1,30.66,169.87Zm-17.43-6H30.66a1.21,1.21,0,0,0,1.21-1.21V150a5.86,5.86,0,0,1,5.85-5.85h72.06A.19.19,0,0,0,110,144V98a2.13,2.13,0,0,0-.65-1.51L60.76,50H36.89L18.36,95.44,15.46,94c-2.53-1.25-8-2.9-9.3-1-1.08,1.62,2.45,7.24,6.2,11l.87.88v59Z"/><circle cx="32.31" cy="130.6" r="8.21"/></g></g></svg>