<svg xmlns="http://www.w3.org/2000/svg" viewBox="0 0 79.35 156.79"><defs><style>.cls-1{fill:#fac700;}</style></defs><g id="Warstwa_2" data-name="Warstwa 2"><g id="Warstwa_1-2" data-name="Warstwa 1"><rect class="cls-1" x="27.18" y="83.29" width="17" height="71" rx="3.93"/><path d="M61.47,141.79H43.82a3,3,0,1,1,0-6H60.68V52a5.21,5.21,0,0,1,5.2-5.21h6.89l-23.09-40L37.8,27.36a3,3,0,1,1-5.19-3L45.17,2.6a5.21,5.21,0,0,1,9,0L78.65,45a5.21,5.21,0,0,1-4.51,7.81H66.68v83.79A5.21,5.21,0,0,1,61.47,141.79Z"/><path d="M41.47,156.79H17.88a5.2,5.2,0,0,1-5.2-5.21V67.79H5.21a5.14,5.14,0,0,1-4.5-2.6A5.12,5.12,0,0,1,.71,60L25.17,17.6a5.21,5.21,0,0,1,9,0L58.65,60a5.21,5.21,0,0,1-4.51,7.81H46.68v83.79A5.21,5.21,0,0,1,41.47,156.79Zm-22.79-6h22V67a5.21,5.21,0,0,1,5.2-5.21h6.88l-23.08-40-23.09,40h6.88A5.22,5.22,0,0,1,18.68,67ZM53.45,63h0Z"/></g></g></svg>