<svg xmlns="http://www.w3.org/2000/svg" viewBox="0 0 151.95 155.61"><defs><style>.cls-1{fill:#b1976b;}</style></defs><g id="Warstwa_2" data-name="Warstwa 2"><g id="Warstwa_1-2" data-name="Warstwa 1"><rect class="cls-1" x="61.95" y="136.61" width="59.15" height="18" rx="2.42"/><path class="cls-1" d="M58.56,84.61a1.06,1.06,0,0,1,1,1.1,23,23,0,0,1-45.91,0,1,1,0,0,1,1.05-1.1Z"/><path class="cls-1" d="M146.9,84.61a1,1,0,0,1,1,1.1,23,23,0,0,1-45.91,0,1.06,1.06,0,0,1,1-1.1Z"/><path d="M116.13,155.61H35.72a6,6,0,0,1-6-6V137a6,6,0,0,1,6-6h80.41a6,6,0,0,1,6,6v12.65A6,6,0,0,1,116.13,155.61Zm0-6v0Zm0-12.62-80.38,0,0,12.62,80.35,0Z"/><path d="M75.93,137a3,3,0,0,1-3-3V3a3,3,0,0,1,6,0V134A3,3,0,0,1,75.93,137Z"/><path d="M128.09,22.19H23.76a3,3,0,0,1,0-6H128.09a3,3,0,0,1,0,6Z"/><path d="M30.4,109.59A30.39,30.39,0,0,1,0,80.61a4.3,4.3,0,0,1,1.18-3.14,4.24,4.24,0,0,1,3.07-1.32H56.56a4.26,4.26,0,0,1,4.24,4.46A30.38,30.38,0,0,1,30.4,109.59ZM6.15,82.15a24.44,24.44,0,0,0,48.51,0Zm50.41,0h0Z"/><path d="M51.57,82.15H9.24a3.57,3.57,0,0,1-3.37-4.78h0L27,18.56a3.57,3.57,0,0,1,6.73,0L54.93,77.37a3.57,3.57,0,0,1-3.36,4.78Zm-40-2.75Zm1.17-3.25H48.12L30.4,26.93Z"/><path d="M121.55,109.59a30.38,30.38,0,0,1-30.4-29,4.26,4.26,0,0,1,4.25-4.46h52.3a4.24,4.24,0,0,1,3.07,1.32A4.29,4.29,0,0,1,152,80.6,30.39,30.39,0,0,1,121.55,109.59ZM97.3,82.15a24.43,24.43,0,0,0,48.5,0Zm50.4,0h0Z"/><path d="M142.71,82.15H100.38A3.57,3.57,0,0,1,97,77.37h0l21.16-58.81a3.57,3.57,0,0,1,6.73,0l21.17,58.81a3.57,3.57,0,0,1-3.37,4.78ZM102.66,79.4Zm1.17-3.25h35.43L121.55,26.93Z"/></g></g></svg>