<svg xmlns="http://www.w3.org/2000/svg" viewBox="0 0 196.77 142.58"><defs><style>.cls-1{fill:#fac700;}</style></defs><g id="Warstwa_2" data-name="Warstwa 2"><g id="Warstwa_1-2" data-name="Warstwa 1"><path class="cls-1" d="M164.74,69.71l7.37-8.82c1.6-1.91,4.68-2,6.89-.11l14.71,12.3c2.21,1.85,2.71,4.89,1.11,6.8l-7.37,8.82"/><path class="cls-1" d="M108,10.76l8.85-7.33c1.92-1.59,5-1.08,6.8,1.14l12.22,14.77c1.84,2.22,1.77,5.31-.15,6.9l-8.85,7.32"/><path d="M151.83,142.58a38,38,0,0,1-18.76-5,3,3,0,0,1,3-5.22,32.21,32.21,0,1,0-9-7.52,3,3,0,1,1-4.62,3.84,38.19,38.19,0,1,1,29.41,13.85Z"/><path d="M184.24,91.7a3,3,0,0,1-1.92-.7,3,3,0,0,1-.38-4.23L189.32,78a2,2,0,0,0-.73-2.58l-14.71-12.3a2,2,0,0,0-2.67-.26l-7.37,8.81a3,3,0,1,1-4.6-3.85L166.61,59c2.65-3.18,7.64-3.4,11.12-.49l14.7,12.3c3.48,2.9,4.15,7.85,1.49,11l-7.37,8.81A3,3,0,0,1,184.24,91.7Z"/><path d="M187.7,26.1c-3.53,0-7.68-1.91-11.27-5.49a19.34,19.34,0,0,1-5.05-8.26c-.92-3.39-.32-6.46,1.66-8.43h0c2-2,5-2.58,8.43-1.66a19.34,19.34,0,0,1,8.26,5.05,19.16,19.16,0,0,1,5,8.26c.93,3.38.32,6.46-1.65,8.43A7.45,7.45,0,0,1,187.7,26.1ZM178.43,7.83a1.63,1.63,0,0,0-1.15.33h0a3.06,3.06,0,0,0-.11,2.61,13.43,13.43,0,0,0,3.5,5.59c3.6,3.6,7.36,4.25,8.21,3.4a3.06,3.06,0,0,0,.11-2.61,13.44,13.44,0,0,0-3.51-5.6,13.43,13.43,0,0,0-5.59-3.5A6,6,0,0,0,178.43,7.83Z"/><path d="M187.37,56.67c-5.36,0-9.4-6.11-9.4-14.2s4-14.2,9.4-14.2,9.4,6.1,9.4,14.2S192.73,56.67,187.37,56.67Zm0-22.4c-1.2,0-3.4,3.11-3.4,8.2s2.2,8.2,3.4,8.2,3.4-3.11,3.4-8.2S188.57,34.27,187.37,34.27Z"/><path d="M183.18,68.35a3,3,0,0,1-.78-.1,3,3,0,0,1-2.12-3.67L184,50.67a3,3,0,1,1,5.79,1.55l-3.72,13.91A3,3,0,0,1,183.18,68.35Z"/><path d="M187.63,37.15a3,3,0,0,1-3-3V19.74a3,3,0,0,1,6,0V34.15A3,3,0,0,1,187.63,37.15Z"/><path d="M154.3,18.8c-8.09,0-14.2-4-14.2-9.4S146.21,0,154.3,0s14.2,4,14.2,9.4S162.4,18.8,154.3,18.8Zm0-12.8c-5.09,0-8.2,2.2-8.2,3.4s3.11,3.4,8.2,3.4,8.2-2.2,8.2-3.4S159.39,6,154.3,6Z"/><path d="M177,12.14h-14.4a3,3,0,1,1,0-6H177a3,3,0,0,1,0,6Z"/><path d="M130.56,15.74a3,3,0,0,1-.77-5.9L143.7,6.11a3,3,0,0,1,1.55,5.8l-13.91,3.73A3,3,0,0,1,130.56,15.74Z"/><path d="M91.87,82.61a38,38,0,0,1-24.35-8.79,3,3,0,1,1,3.83-4.62,32.2,32.2,0,1,0-7.52-9,3,3,0,0,1-5.22,3A38.18,38.18,0,1,1,91.87,82.61Z"/><path d="M126.54,37.71a3,3,0,0,1-1.93-5.31L133.43,25a1.29,1.29,0,0,0,.39-1,2.65,2.65,0,0,0-.66-1.71l-12.3-14.7a2,2,0,0,0-2.58-.73l-8.81,7.37a3,3,0,1,1-3.85-4.6l8.81-7.38c3.18-2.65,8.13-2,11,1.49l12.3,14.7a8.69,8.69,0,0,1,2,5.66,7.32,7.32,0,0,1-2.54,5.47L128.46,37A3,3,0,0,1,126.54,37.71Z"/><path d="M19,134.23a19,19,0,1,1,18.55-23.14h0A19,19,0,0,1,19,134.23Zm0-32A13,13,0,1,0,31.69,112.4,13.14,13.14,0,0,0,19,102.23Z"/><path d="M37.14,115a3,3,0,0,1-.66-5.93l57-12.72a3,3,0,0,1,1.31,5.85l-57,12.73A2.94,2.94,0,0,1,37.14,115Z"/><path d="M75.83,122.83,71,101.36l16.79-3.75,4.79,21.48Zm2.37-16.92,2.18,9.76,5.08-1.13-2.18-9.77Z"/></g></g></svg>