<svg xmlns="http://www.w3.org/2000/svg" viewBox="0 0 103.99 151.5"><defs><style>.cls-1{fill:#b1976b;}</style></defs><g id="Warstwa_2" data-name="Warstwa 2"><g id="Warstwa_1-2" data-name="Warstwa 1"><circle class="cls-1" cx="56.71" cy="34.44" r="23.21"/><path d="M104,151.5H0V85A22.64,22.64,0,0,1,22.62,62.36H81.37A22.64,22.64,0,0,1,104,85Zm-98-6H98V85A16.63,16.63,0,0,0,81.37,68.36H22.62A16.63,16.63,0,0,0,6,85Z"/><path d="M64.56,136.65H9.65L25.31,66.19a3,3,0,0,1,5.86,1.3l-14,63.16H57.24L44.6,67.43a3,3,0,0,1,5.88-1.18Z"/><path d="M75,130.71H60.9a3,3,0,1,1,0-6H75a3.7,3.7,0,0,0,3.7-3.69V110.66A3.7,3.7,0,0,0,75,107H55.71a3,3,0,1,1,0-6H75a9.71,9.71,0,0,1,9.7,9.7V121A9.71,9.71,0,0,1,75,130.71Z"/><path d="M16.36,130.71H3a3,3,0,0,1,0-6H16.36a3,3,0,0,1,0,6Z"/><path d="M77.23,107a3,3,0,0,1-3-3V84.66a3,3,0,0,1,6,0V104A3,3,0,0,1,77.23,107Z"/><path d="M77.23,150a3,3,0,0,1-3-3V127.71a3,3,0,0,1,6,0V147A3,3,0,0,1,77.23,150Z"/><path d="M52,59.45A29.73,29.73,0,1,1,81.72,29.72,29.75,29.75,0,0,1,52,59.45ZM52,6A23.73,23.73,0,1,0,75.72,29.72,23.75,23.75,0,0,0,52,6Z"/><path d="M25.27,32.73a3,3,0,0,1-.87-5.88L73.4,12a3,3,0,0,1,1.74,5.74l-49,14.85A3.27,3.27,0,0,1,25.27,32.73Z"/><path d="M56.45,23.82a3,3,0,0,1-1.27-.28L32.91,13.14a3,3,0,1,1,2.54-5.43L57.72,18.1a3,3,0,0,1-1.27,5.72Z"/></g></g></svg>