<svg xmlns="http://www.w3.org/2000/svg" viewBox="0 0 246.98 146.29"><defs><style>.cls-1{fill:#fac700;}</style></defs><g id="Warstwa_2" data-name="Warstwa 2"><g id="Warstwa_1-2" data-name="Warstwa 1"><path d="M96.82,61.73H42.22a7,7,0,0,1-6.54-9.46L50.06,14.13A7,7,0,0,1,56.6,9.61h63.86a7,7,0,0,1,5.94,10.67L102.76,58.42A7,7,0,0,1,96.82,61.73ZM55.67,16.25,41.29,54.39a1,1,0,0,0,.93,1.34h54.6a1,1,0,0,0,.84-.47L121.3,17.12a1,1,0,0,0-.84-1.51H56.6a1,1,0,0,0-.93.64Z"/><path class="cls-1" d="M98.08,108.37l19.84-28.48,33.75,22.6L131.83,131C125,141.1,112,144.27,102.66,138h0C93.34,131.79,91.29,118.51,98.08,108.37Z"/><path d="M112.78,141.85a30.87,30.87,0,0,1-25.61-48L137,19.33a30.88,30.88,0,1,1,51.32,34.36l-49.86,74.47A30.87,30.87,0,0,1,112.78,141.85ZM92.15,97.14h0a24.88,24.88,0,0,0,41.36,27.68l49.86-74.47A24.88,24.88,0,1,0,142,22.67Z"/><path d="M160.93,92.26a3,3,0,0,1-1.67-.51l-46.34-31a3,3,0,0,1,3.34-5l46.34,31a3,3,0,0,1-1.67,5.5Z"/><path d="M209.37,144.35a37.58,37.58,0,1,1,29.48-14.21h0A37.54,37.54,0,0,1,209.37,144.35Zm.1-69.17a32.38,32.38,0,0,0-3.67.21,31.59,31.59,0,1,0,28.35,51h0a31.59,31.59,0,0,0-24.68-51.23Zm27,53.1h0Z"/><path d="M187.9,136.87a3,3,0,0,1-2.35-4.87l41.82-52.68a3,3,0,1,1,4.7,3.73l-41.82,52.68A3,3,0,0,1,187.9,136.87Z"/><path d="M35.37,146.29H13.72A5.26,5.26,0,0,1,8.47,141V73.4C5.16,69.88-3.18,59.93,1.29,53.22c3.84-5.76,11.82-3.9,16.24-2.28L36.7,3.87A6.2,6.2,0,0,1,42.46,0h84.33a7.09,7.09,0,0,1,5.88,11L59.34,120.15a7,7,0,0,1-5.78,3.07H43.63a.33.33,0,0,0-.33.34v14.8A7.94,7.94,0,0,1,35.37,146.29Zm-20.9-6h20.9a1.94,1.94,0,0,0,1.93-1.93v-14.8a6.35,6.35,0,0,1,6.33-6.34h9.93a1,1,0,0,0,.8-.42L127.69,7.7a1.09,1.09,0,0,0-.9-1.7H42.46a.2.2,0,0,0-.2.14L20.71,59l-2.89-1.45c-2.88-1.43-9.78-3.67-11.54-1C4.82,58.73,9,65.42,13.59,70.06l.88.88v69.35Z"/><circle cx="32.61" cy="89.48" r="9.61"/></g></g></svg>