<svg xmlns="http://www.w3.org/2000/svg" viewBox="0 0 130.02 174.89"><defs><style>.cls-1{fill:#b1976b;}</style></defs><g id="Warstwa_2" data-name="Warstwa 2"><g id="Warstwa_1-2" data-name="Warstwa 1"><path d="M130,174.89H100v-56H72.33v56H0V53.64L65,0l65,53.64Zm-24.05-6h18V56.46L65,7.78,6,56.46V168.89H66.33v-56H106Z"/><rect class="cls-1" x="89.07" y="70.29" width="27.58" height="34.48"/><rect class="cls-1" x="29.83" y="70.29" width="27.58" height="34.48"/><path d="M52.37,99.72H18.78V59.24H52.37Zm-27.59-6H46.37V65.24H24.78Z"/><rect class="cls-1" x="29.83" y="127.35" width="27.58" height="34.48"/><path d="M52.37,156.77H18.78V116.29H52.37Zm-27.59-6H46.37V122.29H24.78Z"/><path d="M111.6,99.72H78V59.24H111.6ZM84,93.72H105.6V65.24H84Z"/></g></g></svg>