<svg xmlns="http://www.w3.org/2000/svg" viewBox="0 0 174.98 150.6"><defs><style>.cls-1{fill:#b1976b;}</style></defs><g id="Warstwa_2" data-name="Warstwa 2"><g id="Warstwa_1-2" data-name="Warstwa 1"><polygon class="cls-1" points="77.41 21 92.41 22 101.24 28.75 104.41 34 83.41 60 101.41 76 83.41 105 98.41 120 93.41 149 81.41 150 79.41 143 84.41 119 68.41 103 87.33 74.32 69.41 58 89.88 33.47 77.41 21"/><path d="M94.09,150.49a6.28,6.28,0,0,1-3-.77l-1.95-1.08,6-27.55-17.68-15.6,20-28.95L78.13,60.31l23.39-26.44L91.76,21.25l1.35-1.82A45.36,45.36,0,1,1,164,75.9a5.81,5.81,0,0,1-.44.57l-64.85,72A6.23,6.23,0,0,1,94.09,150.49Zm-8.7-46,16.32,14.4-4.9,22.69,62.26-69.09.28-.39a39.35,39.35,0,1,0-60-50.9l10,12.91L86.69,59.69l18.74,15.77Z"/><path d="M81.64,150.6l-3.5-1.86a6.11,6.11,0,0,1-1.7-1.33l-65-71.88A7.32,7.32,0,0,1,11,74.9,45.36,45.36,0,1,1,83.38,20.61c1.77,2,8.58,10.52,9.37,11.52l1.54,1.92L73.63,58.64l18.8,15.82-20,29.05,16.32,14.4ZM45.39,6a39.35,39.35,0,0,0-29.8,65.1l.2.26.15.2L77.8,140l4.31-19.88-17.68-15.6,20-28.95L65.19,59.36,86.53,34c-2.7-3.36-6.85-8.51-7.76-9.52l-.3-.38A39.27,39.27,0,0,0,45.39,6Z"/></g></g></svg>