<svg xmlns="http://www.w3.org/2000/svg" viewBox="0 0 130.04 156.5"><defs><style>.cls-1{fill:#fac700;}</style></defs><g id="Warstwa_2" data-name="Warstwa 2"><g id="Warstwa_1-2" data-name="Warstwa 1"><path d="M113.26,17.58H19a3,3,0,1,1,0-6h94.27a3,3,0,1,1,0,6Z"/><path d="M24.78,17.58a3,3,0,0,1-3-3V3a3,3,0,0,1,6,0V14.58A3,3,0,0,1,24.78,17.58Z"/><path d="M38,15.92a3,3,0,0,1-3-3V3a3,3,0,0,1,6,0v9.92A3,3,0,0,1,38,15.92Z"/><path d="M94.24,18.4a3,3,0,0,1-3-3V3.83a3,3,0,1,1,6,0V15.4A3,3,0,0,1,94.24,18.4Z"/><path d="M107.47,16.75a3,3,0,0,1-3-3V3.83a3,3,0,1,1,6,0v9.92A3,3,0,0,1,107.47,16.75Z"/><path d="M54.27,54a3.34,3.34,0,0,1-.7-.08c-8.19-2-14.33-5.7-18.26-11.07a35.65,35.65,0,0,1-4.43-8.27,27.37,27.37,0,0,1-6,8.68C20.21,47.64,13.34,49.58,4.45,49a3,3,0,1,1,.4-6c7.15.47,12.51-.92,15.94-4.15,6.16-5.81,7.33-16.23,7.34-16.33l6,.08c0,.09.82,9.52,6,16.66C43.22,43.46,48.21,46.41,55,48a3,3,0,0,1-.7,5.92Z"/><path d="M3,70.5a3,3,0,0,1-.11-6,265.52,265.52,0,0,0,63.78-9.81c14.16-4.08,22-9.54,26.25-18.27,1.75-3.61,4.78-12.77,4.81-12.86l.68-2.06h6.49l.31,2.65c0,.08,1,8.25,5.79,13.15,3.14,3.23,8.47,4.6,15.82,4.05a3,3,0,0,1,.44,6c-9.2.67-16.13-1.3-20.57-5.87a26.59,26.59,0,0,1-5.6-9.32c-.92,2.52-2,5.19-2.78,6.89-5,10.27-14.23,16.88-30,21.42a272.35,272.35,0,0,1-65.22,10Z"/><path d="M119.44,70.82a93.86,93.86,0,0,1-19.48-2A94.48,94.48,0,0,1,76,60.24a3,3,0,0,1,2.76-5.33,88.1,88.1,0,0,0,22.4,8,88.25,88.25,0,0,0,25.59,1.6,3,3,0,1,1,.5,6C124.67,70.71,122.06,70.82,119.44,70.82Z"/><rect class="cls-1" x="60.88" y="32.77" width="11.58" height="117.42"/><path d="M72.74,156.5a3,3,0,0,1-3-3v-124a3,3,0,1,1,6,0v124A3,3,0,0,1,72.74,156.5Z"/><path d="M60.88,156.5a3,3,0,0,1-3-3v-124a3,3,0,0,1,6,0v124A3,3,0,0,1,60.88,156.5Z"/></g></g></svg>