<svg xmlns="http://www.w3.org/2000/svg" viewBox="0 0 173.44 145.34"><defs><style>.cls-1{fill:#fac700;}.cls-2{fill:#3c3c3b;}</style></defs><g id="Warstwa_2" data-name="Warstwa 2"><g id="Warstwa_1-2" data-name="Warstwa 1"><path class="cls-1" d="M169.32,115.36c1.12,16.76-16.38,27-16.38,27l-78.26-.08-28.31-.69S61,130.38,59.7,126.25s-1.26-13.13-1.26-13.13l-8-4-9.12-2.61-2.88-7.39,10.13-1.93L132.21,97,154,100l9.87,6.81Z"/><g id="Group_8" data-name="Group 8"><path d="M115.59,37.84H35.79a3,3,0,0,1,0-6h79.8a3,3,0,0,1,0,6Z"/><path d="M117.42,49.24H58.85a3,3,0,0,1,0-6h58.57a3,3,0,0,1,0,6Z"/><g id="Group_7" data-name="Group 7"><path d="M94.54,66.93H45.8a3,3,0,1,1,0-6H94.54a3,3,0,1,1,0,6Z"/><path d="M119.38,67.32H104.05a3,3,0,0,1,0-6h15.33a3,3,0,1,1,0,6Z"/></g><path d="M123.09,82.26H46a3,3,0,0,1,0-6h77.05a3,3,0,0,1,0,6Z"/></g><path d="M153.35,145.34l-115.44-.83,6.58-5.28c4.78-3.83,12.49-11.65,12.85-16.32.5-6.38-4.2-8.61-11.43-11.28-4.74-1.75-9.63-3.55-10.15-8.21a7.5,7.5,0,0,1,2.06-6.36c3.38-3.37,9.58-3,10.9-2.87h94.41l.21,0c1.16.17,28.54,4.3,30,23.65,1.29,16.87-12.26,25.27-19.6,27.35Zm-99.29-6.72,98.43.71c2.5-.83,16-6,14.88-21-1.06-13.89-22.43-17.76-24.69-18.13H48.4l-.16,0c-1.84-.19-5.08,0-6.17,1.14-.15.15-.46.45-.35,1.45s4,2.39,6.27,3.24c6.45,2.39,16.22,6,15.33,17.37C62.91,128.6,58.15,134.48,54.06,138.62Z"/><g id="Group_10" data-name="Group 10"><path id="Path_12" data-name="Path 12" class="cls-2" d="M22.56,17.63h3.36l3.24,14.82H25.79Z"/><path id="Path_13" data-name="Path 13" class="cls-2" d="M19.57,21H30.69l.61,2.89H20.19Z"/></g><path d="M144.12,145.16h-109A10.77,10.77,0,0,1,25,136.71L.17,9.67a8.19,8.19,0,0,1,1.6-6.83A8,8,0,0,1,8,0H117a10.78,10.78,0,0,1,10.1,8.45l16.93,90.62-3.56.05c-.68,0-68.13,1-82,1.53a3,3,0,1,1-.23-6c12.12-.46,64.43-1.27,78.62-1.48L121.24,9.64A4.76,4.76,0,0,0,116.84,6H8a2,2,0,0,0-1.62.65,2.22,2.22,0,0,0-.34,1.87l24.83,127a4.75,4.75,0,0,0,4.4,3.67H144.12a3,3,0,0,1,0,6Z"/></g></g></svg>