<svg xmlns="http://www.w3.org/2000/svg" viewBox="0 0 152.11 152.11"><defs><style>.cls-1{fill:#fac700;}</style></defs><g id="Warstwa_2" data-name="Warstwa 2"><g id="Warstwa_1-2" data-name="Warstwa 1"><path class="cls-1" d="M134,75.36V93.68a3.62,3.62,0,0,1-3.61,3.62H93.94v36.45a3.62,3.62,0,0,1-3.62,3.61H71v-62Z"/><path d="M90,152.11H62.09a7.9,7.9,0,0,1-7.89-7.89V97.91H7.89A7.9,7.9,0,0,1,0,90V62.09A7.9,7.9,0,0,1,7.89,54.2H54.2V7.89A7.9,7.9,0,0,1,62.09,0H90a7.9,7.9,0,0,1,7.89,7.89V54.2h46.31a7.9,7.9,0,0,1,7.89,7.89V90a7.9,7.9,0,0,1-7.89,7.89H97.91v46.31A7.9,7.9,0,0,1,90,152.11ZM7.89,60.2A1.89,1.89,0,0,0,6,62.09V90a1.89,1.89,0,0,0,1.89,1.89H60.2v52.31a1.89,1.89,0,0,0,1.89,1.89H90a1.89,1.89,0,0,0,1.89-1.89V91.91h52.31A1.89,1.89,0,0,0,146.11,90V62.09a1.89,1.89,0,0,0-1.89-1.89H91.91V7.89A1.89,1.89,0,0,0,90,6H62.09A1.89,1.89,0,0,0,60.2,7.89V60.2Z"/></g></g></svg>