<svg xmlns="http://www.w3.org/2000/svg" viewBox="0 0 181.61 95.3"><defs><style>.cls-1{fill:#fac700;}</style></defs><g id="Warstwa_2" data-name="Warstwa 2"><g id="Warstwa_1-2" data-name="Warstwa 1"><polygon points="75 39.29 58.97 46.76 19.04 32.2 23.32 20.46 75 39.29"/><path d="M57.83,95.3,0,74.22,27.05,0,79.87,19.25,91.05,35.12,61.21,49,72,68.76,52.84,79.25ZM7.69,70.64,48.51,85.52l-2.85-9.16,18.16-10L52.89,46.28,82,32.71l-6-8.47L30.63,7.69Z"/><polygon points="162.35 20.82 165.75 32.85 95.97 52.55 104.61 37.12 162.35 20.82"/><circle class="cls-1" cx="149.25" cy="57.25" r="6"/><circle cx="141.55" cy="59.42" r="6"/><path d="M116.18,94.64l-13.7-10.3,8.9-18.72-20.62-9.9,15.7-28L86.73,20.86,160.15.14l21.46,76ZM110,82.49l7.4,5.57,56.8-16L156,7.55,106.78,21.44l8.42,2.91L99.11,53.08l20.25,9.72Z"/></g></g></svg>